mtllib cube.mtl
o Cube
v -1.0 1.0 -1.0
v 1.0 1.0 -1.0
v 1.0 -1.0 -1.0
v -1.0 -1.0 -1.0

v -1.0 1.0 1.0
v 1.0 1.0 1.0
v 1.0 -1.0 1.0
v -1.0 -1.0 1.0

vt 0.0 0.0
vt 1.0 0.0
vt 1.0 1.0
vt 0.0 1.0

vn 1.0 0.0 0.0
vn -1.0 0.0 0.0
vn 0.0 1.0 0.0
vn 0.0 -1.0 0.0
vn 0.0 0.0 1.0
vn 0.0 0.0 -1.0

f 1/1/6 2/2/6 3/3/6
f 4/4/6 1/1/6 3/3/6

f 5/1/2 1/2/2 4/3/2
f 8/4/2 5/1/2 4/3/2

f 6/1/5 5/2/5 8/3/5
f 7/4/5 6/1/5 8/3/5

f 2/1/1 6/2/1 7/3/1
f 3/4/1 2/1/1 7/3/1

f 5/1/3 6/2/3 2/3/3
f 1/4/3 5/1/3 2/3/3

f 4/1/4 3/2/4 7/3/4
f 8/4/4 4/1/4 7/3/4